<?xml version="1.0" encoding="UTF-8" standalone="no"?>
<!DOCTYPE svg PUBLIC "-//W3C//DTD SVG 1.1//EN"
 "http://www.w3.org/Graphics/SVG/1.1/DTD/svg11.dtd">
<!-- Generated by graphviz version 3.0.0 (20220226.1711)
 -->
<!-- Title: G Pages: 1 -->
<svg width="196pt" height="637pt"
 viewBox="0.00 0.00 195.99 636.96" xmlns="http://www.w3.org/2000/svg" xmlns:xlink="http://www.w3.org/1999/xlink">
<g id="graph0" class="graph" transform="scale(1 1) rotate(0) translate(4 632.96)">
<title>G</title>
<polygon fill="white" stroke="transparent" points="-4,4 -4,-632.96 191.99,-632.96 191.99,4 -4,4"/>
<!-- 4525227024 -->
<g id="node1" class="node">
<title>4525227024</title>
<ellipse fill="none" stroke="black" cx="125.49" cy="-567.21" rx="61.99" ry="61.99"/>
<text text-anchor="middle" x="125.49" y="-563.51" font-family="Times,serif" font-size="14.00">even A even B</text>
</g>
<!-- 4527689056 -->
<g id="node2" class="node">
<title>4527689056</title>
<ellipse fill="none" stroke="black" cx="58.49" cy="-395.97" rx="58.49" ry="58.49"/>
<text text-anchor="middle" x="58.49" y="-392.27" font-family="Times,serif" font-size="14.00">even A odd B</text>
</g>
<!-- 4525227024&#45;&gt;4527689056 -->
<g id="edge1" class="edge">
<title>4525227024&#45;&gt;4527689056</title>
<path fill="none" stroke="black" d="M96.64,-512.59C92.65,-504.29 88.79,-495.73 85.49,-487.47 82.27,-479.39 79.22,-470.78 76.42,-462.2"/>
<polygon fill="black" stroke="black" points="79.72,-461.02 73.36,-452.55 73.04,-463.14 79.72,-461.02"/>
<text text-anchor="middle" x="88.99" y="-476.27" font-family="Times,serif" font-size="14.00">b</text>
</g>
<!-- 4527693040 -->
<g id="node3" class="node">
<title>4527693040</title>
<ellipse fill="none" stroke="black" cx="125.49" cy="-62.49" rx="58.49" ry="58.49"/>
<ellipse fill="none" stroke="black" cx="125.49" cy="-62.49" rx="62.49" ry="62.49"/>
<text text-anchor="middle" x="125.49" y="-58.79" font-family="Times,serif" font-size="14.00">odd A even B</text>
</g>
<!-- 4525227024&#45;&gt;4527693040 -->
<g id="edge2" class="edge">
<title>4525227024&#45;&gt;4527693040</title>
<path fill="none" stroke="black" d="M125.49,-505.32C125.49,-412.16 125.49,-234.62 125.49,-135.31"/>
<polygon fill="black" stroke="black" points="128.99,-135.07 125.49,-125.07 121.99,-135.07 128.99,-135.07"/>
<text text-anchor="middle" x="128.99" y="-308.28" font-family="Times,serif" font-size="14.00">a</text>
</g>
<!-- 4527689056&#45;&gt;4525227024 -->
<g id="edge3" class="edge">
<title>4527689056&#45;&gt;4525227024</title>
<path fill="none" stroke="black" d="M82.85,-449.53C86.19,-457.18 89.5,-465 92.49,-472.47 95.89,-480.94 99.28,-489.91 102.54,-498.81"/>
<polygon fill="black" stroke="black" points="99.32,-500.2 106.01,-508.42 105.91,-497.82 99.32,-500.2"/>
<text text-anchor="middle" x="99.99" y="-476.27" font-family="Times,serif" font-size="14.00">b</text>
</g>
<!-- 4527691024 -->
<g id="node4" class="node">
<title>4527691024</title>
<ellipse fill="none" stroke="black" cx="61.49" cy="-231.23" rx="55.49" ry="55.49"/>
<text text-anchor="middle" x="61.49" y="-227.53" font-family="Times,serif" font-size="14.00">odd A odd B</text>
</g>
<!-- 4527689056&#45;&gt;4527691024 -->
<g id="edge4" class="edge">
<title>4527689056&#45;&gt;4527691024</title>
<path fill="none" stroke="black" d="M48.73,-338.05C47.8,-326.92 47.53,-315.34 48.49,-304.48 48.75,-301.62 49.06,-298.71 49.41,-295.78"/>
<polygon fill="black" stroke="black" points="52.9,-296.12 50.77,-285.75 45.96,-295.19 52.9,-296.12"/>
<text text-anchor="middle" x="51.99" y="-308.28" font-family="Times,serif" font-size="14.00">a</text>
</g>
<!-- 4527693040&#45;&gt;4525227024 -->
<g id="edge7" class="edge">
<title>4527693040&#45;&gt;4525227024</title>
<path fill="none" stroke="black" d="M137.29,-124.11C138.19,-130.47 138.96,-136.85 139.49,-142.99 152.82,-295.51 152.95,-334.96 139.49,-487.47 139.24,-490.32 138.94,-493.23 138.6,-496.16"/>
<polygon fill="black" stroke="black" points="135.12,-495.8 137.29,-506.17 142.06,-496.71 135.12,-495.8"/>
<text text-anchor="middle" x="152.99" y="-308.28" font-family="Times,serif" font-size="14.00">a</text>
</g>
<!-- 4527693040&#45;&gt;4527691024 -->
<g id="edge8" class="edge">
<title>4527693040&#45;&gt;4527691024</title>
<path fill="none" stroke="black" d="M105.79,-121.95C101.56,-133.93 97,-146.41 92.49,-157.99 90.87,-162.18 89.14,-166.49 87.38,-170.82"/>
<polygon fill="black" stroke="black" points="84.05,-169.71 83.46,-180.28 90.52,-172.38 84.05,-169.71"/>
<text text-anchor="middle" x="99.99" y="-146.79" font-family="Times,serif" font-size="14.00">b</text>
</g>
<!-- 4527691024&#45;&gt;4527689056 -->
<g id="edge5" class="edge">
<title>4527691024&#45;&gt;4527689056</title>
<path fill="none" stroke="black" d="M60.49,-286.62C60.25,-299.55 60,-313.51 59.75,-326.97"/>
<polygon fill="black" stroke="black" points="56.25,-327.08 59.56,-337.14 63.24,-327.21 56.25,-327.08"/>
<text text-anchor="middle" x="62.99" y="-308.28" font-family="Times,serif" font-size="14.00">a</text>
</g>
<!-- 4527691024&#45;&gt;4527693040 -->
<g id="edge6" class="edge">
<title>4527691024&#45;&gt;4527693040</title>
<path fill="none" stroke="black" d="M74.31,-177.1C77.55,-165.71 81.32,-153.84 85.49,-142.99 87.47,-137.85 89.67,-132.61 92,-127.38"/>
<polygon fill="black" stroke="black" points="95.3,-128.57 96.29,-118.02 88.94,-125.65 95.3,-128.57"/>
<text text-anchor="middle" x="88.99" y="-146.79" font-family="Times,serif" font-size="14.00">b</text>
</g>
</g>
</svg>
