<?xml version="1.0" encoding="UTF-8" standalone="no"?>
<!DOCTYPE svg PUBLIC "-//W3C//DTD SVG 1.1//EN"
 "http://www.w3.org/Graphics/SVG/1.1/DTD/svg11.dtd">
<!-- Generated by graphviz version 3.0.0 (20220226.1711)
 -->
<!-- Title: G Pages: 1 -->
<svg width="195pt" height="305pt"
 viewBox="0.00 0.00 195.24 305.00" xmlns="http://www.w3.org/2000/svg" xmlns:xlink="http://www.w3.org/1999/xlink">
<g id="graph0" class="graph" transform="scale(1 1) rotate(0) translate(4 301)">
<title>G</title>
<polygon fill="white" stroke="transparent" points="-4,4 -4,-301 191.24,-301 191.24,4 -4,4"/>
<!-- 4464638992 -->
<g id="node1" class="node">
<title>4464638992</title>
<ellipse fill="none" stroke="black" cx="125.49" cy="-279" rx="61.99" ry="18"/>
<text text-anchor="middle" x="125.49" y="-275.3" font-family="Times,serif" font-size="14.00">even A even B</text>
</g>
<!-- 4467101024 -->
<g id="node2" class="node">
<title>4467101024</title>
<ellipse fill="none" stroke="black" cx="58.49" cy="-192" rx="58.49" ry="18"/>
<text text-anchor="middle" x="58.49" y="-188.3" font-family="Times,serif" font-size="14.00">even A odd B</text>
</g>
<!-- 4464638992&#45;&gt;4467101024 -->
<g id="edge1" class="edge">
<title>4464638992&#45;&gt;4467101024</title>
<path fill="none" stroke="black" d="M104.21,-261.84C97.74,-256.3 90.91,-249.78 85.49,-243 79.75,-235.8 74.6,-227.19 70.37,-219.16"/>
<polygon fill="black" stroke="black" points="73.46,-217.51 65.86,-210.13 67.2,-220.64 73.46,-217.51"/>
<text text-anchor="middle" x="88.99" y="-231.8" font-family="Times,serif" font-size="14.00">b</text>
</g>
<!-- 4467105008 -->
<g id="node3" class="node">
<title>4467105008</title>
<ellipse fill="none" stroke="black" cx="125.49" cy="-18" rx="58.49" ry="18"/>
<text text-anchor="middle" x="125.49" y="-14.3" font-family="Times,serif" font-size="14.00">odd A even B</text>
</g>
<!-- 4464638992&#45;&gt;4467105008 -->
<g id="edge2" class="edge">
<title>4464638992&#45;&gt;4467105008</title>
<path fill="none" stroke="black" d="M125.49,-260.6C125.49,-216.46 125.49,-99.83 125.49,-46.42"/>
<polygon fill="black" stroke="black" points="128.99,-46.32 125.49,-36.32 121.99,-46.32 128.99,-46.32"/>
<text text-anchor="middle" x="128.99" y="-144.8" font-family="Times,serif" font-size="14.00">a</text>
</g>
<!-- 4467101024&#45;&gt;4464638992 -->
<g id="edge3" class="edge">
<title>4467101024&#45;&gt;4464638992</title>
<path fill="none" stroke="black" d="M75.77,-209.5C81.34,-215.16 87.4,-221.66 92.49,-228 98.56,-235.54 104.57,-244.2 109.77,-252.17"/>
<polygon fill="black" stroke="black" points="106.93,-254.23 115.25,-260.78 112.83,-250.47 106.93,-254.23"/>
<text text-anchor="middle" x="105.99" y="-231.8" font-family="Times,serif" font-size="14.00">b</text>
</g>
<!-- 4467102992 -->
<g id="node4" class="node">
<title>4467102992</title>
<ellipse fill="none" stroke="black" cx="61.49" cy="-105" rx="55.49" ry="18"/>
<text text-anchor="middle" x="61.49" y="-101.3" font-family="Times,serif" font-size="14.00">odd A odd B</text>
</g>
<!-- 4467101024&#45;&gt;4467102992 -->
<g id="edge4" class="edge">
<title>4467101024&#45;&gt;4467102992</title>
<path fill="none" stroke="black" d="M51.85,-173.91C48.91,-164.26 46.52,-151.98 48.49,-141 48.98,-138.28 49.67,-135.5 50.47,-132.75"/>
<polygon fill="black" stroke="black" points="53.85,-133.7 53.76,-123.1 47.22,-131.44 53.85,-133.7"/>
<text text-anchor="middle" x="51.99" y="-144.8" font-family="Times,serif" font-size="14.00">a</text>
</g>
<!-- 4467105008&#45;&gt;4464638992 -->
<g id="edge7" class="edge">
<title>4467105008&#45;&gt;4464638992</title>
<path fill="none" stroke="black" d="M133.82,-36.05C136.13,-41.64 138.33,-47.96 139.49,-54 155.38,-136.48 155.38,-160.52 139.49,-243 138.97,-245.74 138.23,-248.53 137.36,-251.29"/>
<polygon fill="black" stroke="black" points="133.98,-250.35 133.82,-260.95 140.55,-252.76 133.98,-250.35"/>
<text text-anchor="middle" x="153.99" y="-144.8" font-family="Times,serif" font-size="14.00">a</text>
</g>
<!-- 4467105008&#45;&gt;4467102992 -->
<g id="edge8" class="edge">
<title>4467105008&#45;&gt;4467102992</title>
<path fill="none" stroke="black" d="M115.07,-36.08C108.85,-45.94 100.6,-58.44 92.49,-69 89.7,-72.65 86.62,-76.4 83.52,-80.02"/>
<polygon fill="black" stroke="black" points="80.77,-77.85 76.81,-87.67 86.04,-82.46 80.77,-77.85"/>
<text text-anchor="middle" x="105.99" y="-57.8" font-family="Times,serif" font-size="14.00">b</text>
</g>
<!-- 4467102992&#45;&gt;4467101024 -->
<g id="edge5" class="edge">
<title>4467102992&#45;&gt;4467101024</title>
<path fill="none" stroke="black" d="M60.89,-123.18C60.48,-134.81 59.93,-150.42 59.46,-163.73"/>
<polygon fill="black" stroke="black" points="55.96,-163.68 59.1,-173.8 62.95,-163.93 55.96,-163.68"/>
<text text-anchor="middle" x="62.99" y="-144.8" font-family="Times,serif" font-size="14.00">a</text>
</g>
<!-- 4467102992&#45;&gt;4467105008 -->
<g id="edge6" class="edge">
<title>4467102992&#45;&gt;4467105008</title>
<path fill="none" stroke="black" d="M67.71,-86.83C71.85,-76.7 77.92,-63.97 85.49,-54 88.69,-49.79 92.46,-45.71 96.39,-41.92"/>
<polygon fill="black" stroke="black" points="98.95,-44.32 104.02,-35.01 94.26,-39.13 98.95,-44.32"/>
<text text-anchor="middle" x="88.99" y="-57.8" font-family="Times,serif" font-size="14.00">b</text>
</g>
</g>
</svg>
