<?xml version="1.0" encoding="UTF-8" standalone="no"?>
<!DOCTYPE svg PUBLIC "-//W3C//DTD SVG 1.1//EN"
 "http://www.w3.org/Graphics/SVG/1.1/DTD/svg11.dtd">
<!-- Generated by graphviz version 3.0.0 (20220226.1711)
 -->
<!-- Title: G Pages: 1 -->
<svg width="122pt" height="419pt"
 viewBox="0.00 0.00 122.04 418.58" xmlns="http://www.w3.org/2000/svg" xmlns:xlink="http://www.w3.org/1999/xlink">
<g id="graph0" class="graph" transform="scale(1 1) rotate(0) translate(4 414.58)">
<title>G</title>
<polygon fill="white" stroke="transparent" points="-4,4 -4,-414.58 118.04,-414.58 118.04,4 -4,4"/>
<!-- eAeB -->
<g id="node1" class="node">
<title>eAeB</title>
<ellipse fill="none" stroke="black" cx="78.85" cy="-380.03" rx="30.59" ry="30.59"/>
<text text-anchor="middle" x="78.85" y="-376.33" font-family="Times,serif" font-size="14.00">eAeB</text>
</g>
<!-- eAoB -->
<g id="node2" class="node">
<title>eAoB</title>
<ellipse fill="none" stroke="black" cx="32.85" cy="-267.29" rx="31.4" ry="31.4"/>
<text text-anchor="middle" x="32.85" y="-263.59" font-family="Times,serif" font-size="14.00">eAoB</text>
</g>
<!-- eAeB&#45;&gt;eAoB -->
<g id="edge1" class="edge">
<title>eAeB&#45;&gt;eAoB</title>
<path fill="none" stroke="black" d="M56.62,-358.19C49.75,-350.49 42.93,-341.23 38.85,-331.48 35.88,-324.42 34.09,-316.53 33.04,-308.78"/>
<polygon fill="black" stroke="black" points="36.52,-308.38 32.07,-298.76 29.55,-309.06 36.52,-308.38"/>
<text text-anchor="middle" x="42.35" y="-320.28" font-family="Times,serif" font-size="14.00">b</text>
</g>
<!-- oAeB -->
<g id="node3" class="node">
<title>oAeB</title>
<ellipse fill="none" stroke="black" cx="78.85" cy="-35.2" rx="31.37" ry="31.37"/>
<ellipse fill="none" stroke="black" cx="78.85" cy="-35.2" rx="35.4" ry="35.4"/>
<text text-anchor="middle" x="78.85" y="-31.5" font-family="Times,serif" font-size="14.00">oAeB</text>
</g>
<!-- eAeB&#45;&gt;oAeB -->
<g id="edge2" class="edge">
<title>eAeB&#45;&gt;oAeB</title>
<path fill="none" stroke="black" d="M78.85,-349.21C78.85,-288.85 78.85,-151.95 78.85,-80.89"/>
<polygon fill="black" stroke="black" points="82.35,-80.48 78.85,-70.48 75.35,-80.48 82.35,-80.48"/>
<text text-anchor="middle" x="82.35" y="-206.89" font-family="Times,serif" font-size="14.00">a</text>
</g>
<!-- eAoB&#45;&gt;eAeB -->
<g id="edge3" class="edge">
<title>eAoB&#45;&gt;eAeB</title>
<path fill="none" stroke="black" d="M44.57,-296.5C50.34,-310.39 57.37,-327.32 63.55,-342.21"/>
<polygon fill="black" stroke="black" points="60.41,-343.76 67.48,-351.66 66.87,-341.08 60.41,-343.76"/>
<text text-anchor="middle" x="62.35" y="-320.28" font-family="Times,serif" font-size="14.00">b</text>
</g>
<!-- oAoB -->
<g id="node4" class="node">
<title>oAoB</title>
<ellipse fill="none" stroke="black" cx="31.85" cy="-153.24" rx="31.7" ry="31.7"/>
<text text-anchor="middle" x="31.85" y="-149.54" font-family="Times,serif" font-size="14.00">oAoB</text>
</g>
<!-- eAoB&#45;&gt;oAoB -->
<g id="edge4" class="edge">
<title>eAoB&#45;&gt;oAoB</title>
<path fill="none" stroke="black" d="M24.39,-237.19C22.92,-230.94 21.61,-224.34 20.85,-218.09 19.88,-210.24 20.28,-201.88 21.36,-193.9"/>
<polygon fill="black" stroke="black" points="24.81,-194.48 23.05,-184.04 17.91,-193.3 24.81,-194.48"/>
<text text-anchor="middle" x="24.35" y="-206.89" font-family="Times,serif" font-size="14.00">a</text>
</g>
<!-- oAeB&#45;&gt;eAeB -->
<g id="edge7" class="edge">
<title>oAeB&#45;&gt;eAeB</title>
<path fill="none" stroke="black" d="M89.06,-69.07C90.64,-75.42 92.01,-82.07 92.85,-88.39 106.96,-195.51 108.26,-224.55 92.85,-331.48 92.4,-334.58 91.8,-337.75 91.1,-340.92"/>
<polygon fill="black" stroke="black" points="87.63,-340.36 88.57,-350.91 94.41,-342.08 87.63,-340.36"/>
<text text-anchor="middle" x="108.35" y="-206.89" font-family="Times,serif" font-size="14.00">a</text>
</g>
<!-- oAeB&#45;&gt;oAoB -->
<g id="edge8" class="edge">
<title>oAeB&#45;&gt;oAoB</title>
<path fill="none" stroke="black" d="M65.87,-68.23C60.12,-82.44 53.3,-99.28 47.28,-114.13"/>
<polygon fill="black" stroke="black" points="43.98,-112.97 43.47,-123.56 50.46,-115.6 43.98,-112.97"/>
<text text-anchor="middle" x="60.35" y="-92.19" font-family="Times,serif" font-size="14.00">b</text>
</g>
<!-- oAoB&#45;&gt;eAoB -->
<g id="edge5" class="edge">
<title>oAoB&#45;&gt;eAoB</title>
<path fill="none" stroke="black" d="M32.12,-185.37C32.24,-197.83 32.37,-212.36 32.48,-225.65"/>
<polygon fill="black" stroke="black" points="28.99,-226 32.58,-235.97 35.99,-225.93 28.99,-226"/>
<text text-anchor="middle" x="36.35" y="-206.89" font-family="Times,serif" font-size="14.00">a</text>
</g>
<!-- oAoB&#45;&gt;oAeB -->
<g id="edge6" class="edge">
<title>oAoB&#45;&gt;oAeB</title>
<path fill="none" stroke="black" d="M31.88,-121.22C32.76,-110.51 34.74,-98.64 38.85,-88.39 41.42,-81.99 45.01,-75.69 48.99,-69.82"/>
<polygon fill="black" stroke="black" points="51.96,-71.69 55.03,-61.55 46.3,-67.56 51.96,-71.69"/>
<text text-anchor="middle" x="42.35" y="-92.19" font-family="Times,serif" font-size="14.00">b</text>
</g>
</g>
</svg>
